# xmcd
#
# Track frame offsets: 
#        150
#        119508
#        147876
#        171281
#        198846
#        213604
#
# Disc length: 3312 seconds
#
# Revision: 0
# Processed by: cddbd v1.5.2PL0 Copyright (c) Steve Scherf et al.
# Submitted via: ExactAudioCopy v1.0b1
#
DISCID=590cee06
DTITLE=Bernstein  - Mahler Symphony No.10
DYEAR=1900
DGENRE=Classical
TTITLE0=Sym No.10, 'Adagio': Andante
TTITLE1=Sym No.10, 'Adagio': Andante Come Prima
TTITLE2=Sym No.10, 'Adagio': A Tempo (Fliessend) 
TTITLE3=Sym No.10, 'Adagio': Measure 104
TTITLE4=Sym No.10, 'Adagio': Measure 194
TTITLE5=Sym No.10, 'Adagio': A Tempo
EXTD=
EXTT0=
EXTT1=
EXTT2=
EXTT3=
EXTT4=
EXTT5=
PLAYORDER=
